<svg width="16" height="16" viewBox="0 0 16 16" fill="none" xmlns="http://www.w3.org/2000/svg">
<g clip-path="url(#clip0_8_26)">
<path fill-rule="evenodd" clip-rule="evenodd" d="M11.4601 10.3188L15.7639 14.6226C15.9151 14.7739 16.0001 14.9792 16 15.1932C15.9999 15.4072 15.9148 15.6124 15.7635 15.7637C15.6121 15.915 15.4068 15.9999 15.1928 15.9999C14.9788 15.9998 14.7736 15.9147 14.6223 15.7633L10.3185 11.4595C9.03194 12.456 7.41407 12.9249 5.79403 12.7709C4.17398 12.6169 2.67346 11.8515 1.59771 10.6304C0.521957 9.40936 -0.0482098 7.82433 0.00319691 6.1978C0.0546036 4.57126 0.723722 3.0254 1.87443 1.87469C3.02514 0.723978 4.57101 0.0548592 6.19754 0.0034525C7.82408 -0.0479542 9.40911 0.522212 10.6302 1.59796C11.8513 2.67371 12.6167 4.17424 12.7707 5.79428C12.9247 7.41433 12.4558 9.0322 11.4593 10.3188H11.4601ZM6.4003 11.1995C7.67328 11.1995 8.89412 10.6938 9.79425 9.7937C10.6944 8.89357 11.2001 7.67273 11.2001 6.39975C11.2001 5.12677 10.6944 3.90593 9.79425 3.0058C8.89412 2.10567 7.67328 1.59998 6.4003 1.59998C5.12732 1.59998 3.90648 2.10567 3.00634 3.0058C2.10621 3.90593 1.60052 5.12677 1.60052 6.39975C1.60052 7.67273 2.10621 8.89357 3.00634 9.7937C3.90648 10.6938 5.12732 11.1995 6.4003 11.1995Z" fill="#737373"/>
</g>
<defs>
<clipPath id="clip0_8_26">
<rect width="16" height="15.9998" fill="white"/>
</clipPath>
</defs>
</svg>
